<?xml version="1.0" encoding="UTF-8" standalone="no"?>
<svg
   viewBox="0 0 1024 1024"
   version="1.1"
   id="svg195"
   sodipodi:docname="index.svg"
   inkscape:export-filename="mythos-far.png"
   inkscape:export-xdpi="96"
   inkscape:export-ydpi="96"
   inkscape:version="1.2 (dc2aeda, 2022-05-15)"
   xmlns:inkscape="http://www.inkscape.org/namespaces/inkscape"
   xmlns:sodipodi="http://sodipodi.sourceforge.net/DTD/sodipodi-0.dtd"
   xmlns="http://www.w3.org/2000/svg"
   xmlns:svg="http://www.w3.org/2000/svg">
  <style
     id="style182">
   @media (prefers-color-scheme: dark) {
      svg { background-color: #222; }
   }

   @media (prefers-color-scheme: light) {
      svg { background-color: #CCC; }
   }
   </style>
  <style
     id="style423">
@import url('https://fonts.googleapis.com/css2?family=Roboto+Condensed');
</style>
  <defs
     id="defs199">
    <filter
       inkscape:collect="always"
       style="color-interpolation-filters:sRGB"
       id="filter1076"
       x="-0.011353968"
       y="-0.072178798"
       width="1.0227079"
       height="1.1443576">
      <feGaussianBlur
         inkscape:collect="always"
         stdDeviation="3.58543"
         id="feGaussianBlur1078" />
    </filter>
  </defs>
  <sodipodi:namedview
     id="namedview197"
     pagecolor="#ffffff"
     bordercolor="#000000"
     borderopacity="0.25"
     inkscape:showpageshadow="2"
     inkscape:pageopacity="0.0"
     inkscape:pagecheckerboard="0"
     inkscape:deskcolor="#d1d1d1"
     showgrid="false"
     inkscape:zoom="0.61621094"
     inkscape:cx="500.64025"
     inkscape:cy="512"
     inkscape:current-layer="layer3" />
  <style
     id="style15897" />
  <metadata
     id="metadata5">image/svg+xml</metadata>
  <g
     inkscape:groupmode="layer"
     id="layer5"
     inkscape:label="Layer 3" />
  <g
     display="inline"
     id="layer1"
     transform="matrix(0.41814719,0,0,0.41814719,297.90679,78.825963)" />
  <g
     display="none"
     id="layer2"
     transform="matrix(0.41814719,0,0,0.41814719,297.90679,78.825963)">
    <g
       display="inline"
       fill="none"
       id="g889"
       stroke="#808080"
       stroke-miterlimit="4"
       stroke-width="0"
       transform="matrix(3.65996,0,0,3.65996,-19.3312,-19.3312)">
      <path
         d="M 145.18,279.4 28.94,212.29 V 78.07 L 145.18,10.96 261.42,78.07 v 134.22 z"
         fill="none"
         fill-opacity="0.73"
         id="path861"
         stroke="#808080"
         stroke-linecap="round"
         stroke-linejoin="round"
         stroke-miterlimit="4"
         stroke-width="50" />
    </g>
  </g>
  <g
     inkscape:groupmode="layer"
     id="layer3"
     inkscape:label="Layer 1"
     style="display:inline">
    <g
       id="g1186"
       transform="translate(131.06286,46.059461)">
      <path
         id="mask-powermask-path-effect1023_box"
         style="fill:#666666;fill-opacity:1;stroke-width:0.125021"
         d="m 558.37947,862.17656 c -12.63964,-0.0125 -25.32936,-10e-5 -37.86898,1.40013 -5.30089,0.60011 -9.68919,4.56329 -10.9269,9.9392 -1.7628,7.66379 -1.78766,16.01513 -1.78766,23.90395 0,7.88883 -5e-5,16.24041 1.76275,23.9042 1.23771,5.37591 5.63852,9.35159 10.9269,9.93919 12.53962,1.40024 25.22934,1.41264 37.86898,1.40014 12.63963,0.0125 25.32911,10e-5 37.86873,-1.40014 5.28839,-0.60011 9.6892,-4.56328 10.9269,-9.93919 1.76279,-7.66379 1.76294,-16.01537 1.77545,-23.9042 0,-7.88882 0.0125,-16.24016 -1.7503,-23.90395 -1.2252,-5.37591 -5.62601,-9.35159 -10.9269,-9.9392 -12.53962,-1.40023 -25.24185,-1.41263 -37.86897,-1.40013 z m -13.07718,17.49027 c 10.72681,5.60095 21.36604,11.15205 32.15536,16.77799 -10.75181,5.57594 -21.41605,11.08925 -32.15536,16.66518 z" />
      <a
         href="https://www.youtube.com/watch?v=A7FS76oPje4&amp;list=PL323JufuD9JBJTiaVCUDvyLLBXNBZRI30&amp;ab_channel=LoredanaCirstea"
         id="a446-2-7-3"
         transform="translate(416.45666,-2.9826877)"
         style="display:inline">
        <rect
           style="opacity:0.2;fill:#808080;fill-opacity:1;fill-rule:evenodd;stroke:#000000;stroke-width:0;stroke-linecap:round;stroke-linejoin:round;stroke-dasharray:none"
           id="rect2121-2-9-9"
           width="141"
           height="100.089"
           x="71.404121"
           y="850.35815"
           rx="14.099999"
           ry="11.668396" />
      </a>
    </g>
    <g
       id="g968">
      <g
         id="g955">
        <g
           id="g648"
           transform="matrix(0.25852866,0,0,0.25852866,121.49349,908.7874)"
           style="fill:#808080">
          <path
             id="rect574"
             style="fill:#808080;stroke:#3a3a3a;stroke-width:0"
             d="m 37.28982,60.060074 h 18.960948 c 1.866694,0 3.369483,1.606511 3.369483,3.602044 V 207.27122 c 0,1.99553 -1.502789,3.60204 -3.369483,3.60204 H 37.28982 c -1.866693,0 -3.369482,-1.60651 -3.369482,-3.60204 V 63.662118 c 0,-1.995533 1.502789,-3.602044 3.369482,-3.602044 z" />
          <path
             id="rect574-7"
             style="display:inline;fill:#808080;stroke:#3a3a3a;stroke-width:0"
             d="m 101.48598,60.060074 h 18.96095 c 1.86669,0 3.36948,1.606511 3.36948,3.602044 V 207.27122 c 0,1.99553 -1.50279,3.60204 -3.36948,3.60204 h -18.96095 c -1.86669,0 -3.369479,-1.60651 -3.369479,-3.60204 V 63.662118 c 0,-1.995533 1.502789,-3.602044 3.369479,-3.602044 z" />
          <path
             id="rect574-3"
             style="display:inline;fill:#808080;stroke:#3a3a3a;stroke-width:0"
             d="m 165.68213,60.060074 h 18.96095 c 1.8667,0 3.36949,1.606511 3.36949,3.602044 V 207.27122 c 0,1.99553 -1.50279,3.60204 -3.36949,3.60204 h -18.96095 c -1.86669,0 -3.36948,-1.60651 -3.36948,-3.60204 V 63.662118 c 0,-1.995533 1.50279,-3.602044 3.36948,-3.602044 z" />
          <path
             id="rect574-79"
             style="display:inline;fill:#808080;stroke:#3a3a3a;stroke-width:0"
             d="m 229.8783,60.060074 h 18.96095 c 1.86669,0 3.36948,1.606511 3.36948,3.602044 V 207.27122 c 0,1.99553 -1.50279,3.60204 -3.36948,3.60204 H 229.8783 c -1.86669,0 -3.36948,-1.60651 -3.36948,-3.60204 V 63.662118 c 0,-1.995533 1.50279,-3.602044 3.36948,-3.602044 z" />
        </g>
        <path
           id="rect574-0"
           style="display:inline;fill:#808080;stroke:#3a3a3a;stroke-width:0"
           d="m 125.94263,964.38516 h 65.07429 c 0.21859,0 0.39457,0.18346 0.39457,0.41134 v 4.11708 c 0,0.22788 -0.17598,0.41134 -0.39457,0.41134 h -65.07429 c -0.2186,0 -0.39458,-0.18346 -0.39458,-0.41134 v -4.11708 c 0,-0.22788 0.17598,-0.41134 0.39458,-0.41134 z" />
        <path
           id="rect574-0-2"
           style="display:inline;fill:#808080;stroke:#3a3a3a;stroke-width:0"
           d="m 117.75074,970.26851 h 81.45806 c 0.24134,0 0.43563,0.18346 0.43563,0.41134 v 4.11707 c 0,0.22789 -0.19429,0.41135 -0.43563,0.41135 h -81.45806 c -0.24133,0 -0.43562,-0.18346 -0.43562,-0.41135 v -4.11707 c 0,-0.22788 0.19429,-0.41134 0.43562,-0.41134 z" />
        <path
           id="path702"
           style="fill:#808080;stroke:#808080;stroke-width:2.2;stroke-linecap:round;stroke-linejoin:round;stroke-dasharray:none"
           d="m 163.109,914.05215 a 4.6292293,4.6292293 0 0 0 -4.62923,-4.62923 4.6292293,4.6292293 0 0 0 -4.62923,4.62923 4.6292293,4.6292293 0 0 0 4.62923,4.62923 4.6292293,4.6292293 0 0 0 4.62923,-4.62923 z m 34.24795,6.9516 H 119.6026 l 38.87717,-15.55087 z" />
      </g>
      <a
         href="#"
         id="a446"
         transform="translate(15.248584,43.076773)">
        <rect
           style="opacity:0.2;fill:#808080;fill-opacity:1;fill-rule:evenodd;stroke:#000000;stroke-width:0;stroke-linecap:round;stroke-linejoin:round;stroke-dasharray:none"
           id="rect2121"
           width="141"
           height="100.089"
           x="71.404121"
           y="850.35815"
           rx="14.099999"
           ry="11.668396" />
      </a>
    </g>
    <g
       id="g714"
       transform="translate(356.04097,52.059341)">
      <path
         style="fill:#808080;stroke-width:0.0919848"
         d="m 498.11111,858.59075 c -1.21926,0.005 -11.30596,0.29119 -21.94687,8.19799 0,0 -11.35031,20.41494 -11.35031,45.55903 0,0 6.62091,11.35018 24.0405,11.90197 0,0 2.91637,-3.46818 5.28102,-6.4634 -10.01034,-2.99522 -13.79376,-9.22189 -13.79376,-9.22189 0,0 0.78838,0.55165 2.20718,1.33987 0.0788,0 0.1574,0.0787 0.31504,0.15753 0.23646,0.15765 0.47302,0.23647 0.70948,0.39412 1.97053,1.10351 3.94102,1.97064 5.75391,2.68005 3.23169,1.33996 7.09407,2.52217 11.58689,3.38922 5.91162,1.1035 12.8478,1.49755 20.41467,0.0787 3.70463,-0.70939 7.48831,-1.73396 11.42938,-3.38921 2.75875,-1.02468 5.83268,-2.52214 9.06437,-4.65033 0,0 -3.941,6.38457 -14.26665,9.30097 2.36465,2.9164 5.20228,6.30556 5.20228,6.30556 17.41957,-0.55175 24.04048,-11.90203 24.04048,-11.82321 0,-25.14409 -11.3503,-45.55903 -11.3503,-45.55903 -11.27148,-8.43392 -22.07021,-8.19738 -22.07021,-8.19738 l -1.10329,1.26111 c 13.3997,4.0199 19.62645,9.93167 19.62645,9.93167 -8.19745,-4.41401 -16.23707,-6.62117 -23.72513,-7.48821 -5.67516,-0.63057 -11.11406,-0.47274 -15.92218,0.15783 -0.47292,0 -0.86693,0.0787 -1.33987,0.15753 -2.75875,0.31528 -9.45854,1.26106 -17.89245,4.96568 -2.91639,1.26115 -4.65063,2.20717 -4.65063,2.20717 0,0 6.46337,-6.22712 20.65126,-10.24702 l -0.78822,-0.94576 c 0,0 -0.0418,-8.8e-4 -0.12304,-8.8e-4 z m -2.00507,29.08585 c 4.49283,0 8.11866,3.86213 8.03984,8.67024 0,4.80812 -3.54701,8.67056 -8.03984,8.67056 -4.41402,0 -8.03985,-3.86244 -8.03985,-8.67056 0,-4.80811 3.54701,-8.67024 8.03985,-8.67024 z m 28.76989,0 c 4.41399,0 8.03984,3.86213 8.03984,8.67024 0,4.80812 -3.54703,8.67056 -8.03984,8.67056 -4.41402,0 -8.03987,-3.86244 -8.03987,-8.67056 0,-4.80811 3.54701,-8.67024 8.03987,-8.67024 z"
         id="path8"
         inkscape:connector-curvature="0" />
      <a
         href="https://discord.gg/sJVpDxFK"
         id="a446-2"
         transform="translate(368.9022,-8.9825677)">
        <rect
           style="opacity:0.2;fill:#808080;fill-opacity:1;fill-rule:evenodd;stroke:#000000;stroke-width:0;stroke-linecap:round;stroke-linejoin:round;stroke-dasharray:none"
           id="rect2121-2"
           width="141"
           height="100.089"
           x="71.404121"
           y="850.35815"
           rx="14.099999"
           ry="11.668396" />
      </a>
    </g>
    <a
       href="#"
       id="a446-2-7"
       transform="translate(370.09587,43.076773)"
       style="display:inline">
      <rect
         style="opacity:0.2;fill:#808080;fill-opacity:1;fill-rule:evenodd;stroke:#000000;stroke-width:0;stroke-linecap:round;stroke-linejoin:round;stroke-dasharray:none"
         id="rect2121-2-9"
         width="141"
         height="100.089"
         x="71.404121"
         y="850.35815"
         rx="14.099999"
         ry="11.668396" />
    </a>
    <g
       id="g1483"
       transform="translate(-110.29565,116.84311)">
      <g
         id="g1321"
         style="fill:#808080"
         transform="matrix(0.08305648,0,0,0.08305648,403.34376,785.11316)">
        <path
           d="m 220.5,275.7 c 154.9,78.6 285.8,74 285.8,74 0,0 -49.6,-173.7 103.8,-250.8 153.4,-77 258.9,52.9 258.9,52.9 0,0 26.8,-7.4 46.7,-14.8 19.9,-7.4 48.8,-20.6 48.8,-20.6 l -47.3,84.8 72.8,-7.8 c 0,0 -9,13.2 -38.1,40 -29.1,26.8 -41.1,40.7 -41.1,40.7 0,0 10.4,209.1 -99.3,370.1 -109.7,161 -251.3,257.6 -457.1,278 -205.8,20.3 -339.9,-63.5 -339.9,-63.5 0,0 90,-5.2 147.4,-27.2 57.4,-22 139.9,-80.1 139.9,-80.1 0,0 -117.3,-36.3 -159.4,-77 -42.1,-40.8 -52.6,-65 -52.6,-65 l 115.8,-1.5 c 0,0 -121.8,-65 -156.4,-116.3 C 14.5,440.4 10,390.5 10,390.5 l 89,36.1 C 99,426.6 25,325.5 14.5,247 4,168.4 28,126.1 28,126.1 c 0,0 37.6,71 192.5,149.6 z"
           id="path1319"
           style="fill:#808080" />
      </g>
      <a
         href="https://twitter.com/provable_laurel"
         id="a446-2-7-9"
         transform="translate(302.96788,-73.766333)"
         style="display:inline">
        <rect
           style="opacity:0.2;fill:#808080;fill-opacity:1;fill-rule:evenodd;stroke:#000000;stroke-width:0;stroke-linecap:round;stroke-linejoin:round;stroke-dasharray:none"
           id="rect2121-2-9-7"
           width="141"
           height="100.089"
           x="71.404121"
           y="850.35815"
           rx="14.099999"
           ry="11.668396" />
      </a>
    </g>
    <rect
       style="opacity:0.4;mix-blend-mode:normal;fill:none;fill-rule:evenodd;stroke:#808080;stroke-width:3;stroke-linecap:round;stroke-linejoin:round;stroke-dasharray:none;filter:url(#filter1076)"
       id="rect1022"
       width="890"
       height="140"
       x="66.999992"
       y="873.42181"
       rx="24"
       ry="24" />
  </g>
  <g
     inkscape:groupmode="layer"
     id="layer4"
     inkscape:label="Layer 2"
     style="display:inline">
    <g
       id="g2134">
      <g
         id="g2127">
        <path
           d="M 316.8614,292.92569 512.00651,97.780575 707.13908,292.92569 512.00651,488.05825 Z m 57.15654,-137.99276 h 275.9646 v 275.9646 h -275.9646 z"
           fill="none"
           id="rect911-5"
           stroke="#808080"
           stroke-linecap="square"
           stroke-miterlimit="4"
           stroke-width="20.9074"
           style="stroke-width:20.907;stroke-dasharray:none" />
        <circle
           cx="512.00232"
           cy="292.92151"
           fill="none"
           id="path931"
           r="10.67948"
           stroke="#808080"
           stroke-linecap="round"
           stroke-linejoin="round"
           stroke-miterlimit="4"
           stroke-width="20.9074" />
      </g>
      <g
         opacity="0"
         id="g455">
        <text
           xml:space="preserve"
           style="font-size:200px;font-family:'Roboto Condensed';-inkscape-font-specification:'Roboto Condensed';text-align:center;text-anchor:middle;fill:#808080;fill-rule:evenodd;stroke:#000000;stroke-width:0;stroke-linecap:round;stroke-linejoin:round;stroke-dasharray:none"
           x="509.69531"
           y="740.47864"
           id="text505"><tspan
             sodipodi:role="line"
             id="tspan503"
             x="509.69531"
             y="740.47864"
             style="font-size:200px;fill:#808080;stroke-width:0;stroke-dasharray:none">mythos</tspan></text>
        <animate
           attributeName="opacity"
           values="0;1;0;1"
           dur="15s"
           repeatCount="indefinite" />
      </g>
    </g>
  </g>
</svg>
