<?xml version="1.0" encoding="UTF-8" standalone="no"?>
<svg
   viewBox="0 0 1024 1024"
   version="1.1"
   id="svg195"
   sodipodi:docname="mythos_page.svg"
   inkscape:export-filename="mythos-far.png"
   inkscape:export-xdpi="96"
   inkscape:export-ydpi="96"
   inkscape:version="1.2 (dc2aeda, 2022-05-15)"
   xmlns:inkscape="http://www.inkscape.org/namespaces/inkscape"
   xmlns:sodipodi="http://sodipodi.sourceforge.net/DTD/sodipodi-0.dtd"
   xmlns="http://www.w3.org/2000/svg"
   xmlns:svg="http://www.w3.org/2000/svg">
   <style>svg { background-color: black; }</style>
   <style>
@import url('https://fonts.googleapis.com/css2?family=Roboto+Condensed');
</style>
  <defs
     id="defs199" />
  <sodipodi:namedview
     id="namedview197"
     pagecolor="#ffffff"
     bordercolor="#000000"
     borderopacity="0.25"
     inkscape:showpageshadow="2"
     inkscape:pageopacity="0.0"
     inkscape:pagecheckerboard="0"
     inkscape:deskcolor="#d1d1d1"
     showgrid="false"
     inkscape:zoom="0.61621094"
     inkscape:cx="572.04437"
     inkscape:cy="512"
     inkscape:current-layer="layer5" />
  <style
     id="style15897" />
  <metadata
     id="metadata5">image/svg+xml</metadata>
  <g
     inkscape:groupmode="layer"
     id="layer5"
     inkscape:label="Layer 3">
    <rect
       style="opacity:1;fill:#000000;fill-opacity:1;fill-rule:evenodd;stroke:#000000;stroke-width:0;stroke-linecap:round;stroke-linejoin:round;stroke-dasharray:none"
       id="rect2168"
       width="1024"
       height="1024"
       x="0"
       y="0" />
  </g>
  <g
     display="inline"
     id="layer1"
     transform="matrix(0.41814719,0,0,0.41814719,297.90679,78.825963)" />
  <g
     display="none"
     id="layer2"
     transform="matrix(0.41814719,0,0,0.41814719,297.90679,78.825963)">
    <g
       display="inline"
       fill="none"
       id="g889"
       stroke="#808080"
       stroke-miterlimit="4"
       stroke-width="0"
       transform="matrix(3.65996,0,0,3.65996,-19.3312,-19.3312)">
      <path
         d="M 145.18,279.4 28.94,212.29 V 78.07 L 145.18,10.96 261.42,78.07 v 134.22 z"
         fill="none"
         fill-opacity="0.73"
         id="path861"
         stroke="#808080"
         stroke-linecap="round"
         stroke-linejoin="round"
         stroke-miterlimit="4"
         stroke-width="50" />
    </g>
  </g>
  <g
     inkscape:groupmode="layer"
     id="layer3"
     inkscape:label="Layer 1"
     style="display:inline">
    <g
       id="g2147">
      <g
         id="g1636"
         style="display:inline"
         transform="matrix(0.31116587,0,0,0.31116587,101.07859,859.8432)">
        <path
           id="path423"
           style="fill:#808080;stroke:#808080;stroke-width:5.29167;stroke-linecap:round;stroke-linejoin:round;stroke-dasharray:none"
           inkscape:transform-center-y="-32.056547"
           d="M 260.40703,63.04609 H 10.526308 L 135.46667,13.069948 Z"
           sodipodi:nodetypes="cccc"
           inkscape:transform-center-x="-1.596367e-06" />
        <g
           id="g648"
           transform="matrix(0.83083875,0,0,0.83083875,16.603108,18.856283)"
           style="fill:#808080">
          <path
             id="rect574"
             style="fill:#808080;stroke:#3a3a3a;stroke-width:0"
             d="m 37.28982,60.060074 h 18.960948 c 1.866694,0 3.369483,1.606511 3.369483,3.602044 V 207.27122 c 0,1.99553 -1.502789,3.60204 -3.369483,3.60204 H 37.28982 c -1.866693,0 -3.369482,-1.60651 -3.369482,-3.60204 V 63.662118 c 0,-1.995533 1.502789,-3.602044 3.369482,-3.602044 z" />
          <path
             id="rect574-7"
             style="display:inline;fill:#808080;stroke:#3a3a3a;stroke-width:0"
             d="m 101.48598,60.060074 h 18.96095 c 1.86669,0 3.36948,1.606511 3.36948,3.602044 V 207.27122 c 0,1.99553 -1.50279,3.60204 -3.36948,3.60204 h -18.96095 c -1.86669,0 -3.369479,-1.60651 -3.369479,-3.60204 V 63.662118 c 0,-1.995533 1.502789,-3.602044 3.369479,-3.602044 z" />
          <path
             id="rect574-3"
             style="display:inline;fill:#808080;stroke:#3a3a3a;stroke-width:0"
             d="m 165.68213,60.060074 h 18.96095 c 1.8667,0 3.36949,1.606511 3.36949,3.602044 V 207.27122 c 0,1.99553 -1.50279,3.60204 -3.36949,3.60204 h -18.96095 c -1.86669,0 -3.36948,-1.60651 -3.36948,-3.60204 V 63.662118 c 0,-1.995533 1.50279,-3.602044 3.36948,-3.602044 z" />
          <path
             id="rect574-79"
             style="display:inline;fill:#808080;stroke:#3a3a3a;stroke-width:0"
             d="m 229.8783,60.060074 h 18.96095 c 1.86669,0 3.36948,1.606511 3.36948,3.602044 V 207.27122 c 0,1.99553 -1.50279,3.60204 -3.36948,3.60204 H 229.8783 c -1.86669,0 -3.36948,-1.60651 -3.36948,-3.60204 V 63.662118 c 0,-1.995533 1.50279,-3.602044 3.36948,-3.602044 z" />
        </g>
        <path
           id="rect574-0"
           style="display:inline;fill:#808080;stroke:#3a3a3a;stroke-width:0"
           d="M 30.901386,197.53192 H 240.03195 c 0.7025,0 1.26805,0.58959 1.26805,1.32194 v 13.23112 c 0,0.73236 -0.56555,1.32194 -1.26805,1.32194 H 30.901386 c -0.702502,0 -1.268055,-0.58958 -1.268055,-1.32194 v -13.23112 c 0,-0.73235 0.565553,-1.32194 1.268055,-1.32194 z" />
        <path
           id="rect574-0-2"
           style="display:inline;fill:#808080;stroke:#3a3a3a;stroke-width:0"
           d="M 4.5749614,216.43935 H 266.35837 c 0.77558,0 1.39997,0.58958 1.39997,1.32194 v 13.23112 c 0,0.73235 -0.62439,1.32194 -1.39997,1.32194 H 4.5749614 c -0.775581,0 -1.3999657,-0.58959 -1.3999657,-1.32194 v -13.23112 c 0,-0.73236 0.6243847,-1.32194 1.3999657,-1.32194 z" />
        <path
           id="path702"
           style="fill:#e6e6e6;stroke:#3a3a3a;stroke-width:0"
           d="M 150.34372,40.705581 A 14.877047,14.877047 0 0 1 135.46667,55.582627 14.877047,14.877047 0 0 1 120.58962,40.705581 14.877047,14.877047 0 0 1 135.46667,25.828535 14.877047,14.877047 0 0 1 150.34372,40.705581 Z" />
      </g>
      <a href="#">
      <rect
         style="opacity:0.2;fill:#808080;fill-opacity:1;fill-rule:evenodd;stroke:#000000;stroke-width:0;stroke-linecap:round;stroke-linejoin:round;stroke-dasharray:none"
         id="rect2121"
         width="141"
         height="100.089"
         x="71.404121"
         y="850.35815"
         rx="14.099999"
         ry="11.668396"
          /></a>
    </g>
  </g>
  <g
     inkscape:groupmode="layer"
     id="layer4"
     inkscape:label="Layer 2"
     style="display:inline">
    <g
       id="g2134">
      <g
         id="g2127">
        <path
           d="M 316.8614,292.92569 512.00651,97.780575 707.13908,292.92569 512.00651,488.05825 Z m 57.15654,-137.99276 h 275.9646 v 275.9646 h -275.9646 z"
           fill="none"
           id="rect911-5"
           stroke="#808080"
           stroke-linecap="square"
           stroke-miterlimit="4"
           stroke-width="20.9074"
           style="stroke-width:20.907;stroke-dasharray:none" />
        <circle
           cx="512.00232"
           cy="292.92151"
           fill="none"
           id="path931"
           r="10.67948"
           stroke="#808080"
           stroke-linecap="round"
           stroke-linejoin="round"
           stroke-miterlimit="4"
           stroke-width="20.9074" />
      </g>
      <g opacity="0">
      <text
         xml:space="preserve"
         style="font-size:160px;font-family:'Roboto Condensed';-inkscape-font-specification:'Roboto Condensed';text-align:center;text-anchor:middle;fill:#808080;fill-rule:evenodd;stroke:#000000;stroke-width:0;stroke-linecap:round;stroke-linejoin:round;stroke-dasharray:none"
         x="509.69531"
         y="690.47864"
         id="text505"><tspan
           sodipodi:role="line"
           id="tspan503"
           x="509.69531"
           y="690.47864"
           style="font-size:160px;fill:#808080;stroke-width:0;stroke-dasharray:none">mythos</tspan></text>
<animate attributeName="opacity" values="0;1;0;1" dur="15s" repeatCount="indefinite" />
           </g>
    </g>
  </g>
</svg>
